{
    "asset" : {
        "generator" : "Khronos glTF Blender I/O v3.2.43",
        "version" : "2.0"
    },
    "scene" : 0,
    "scenes" : [
        {
            "name" : "Scene",
            "nodes" : [
                0,
                1,
                2
            ]
        }
    ],
    "nodes" : [
        {
            "mesh" : 0,
            "name" : "Text.001",
            "scale" : [
                4.23530912399292,
                4.4206671714782715,
                4.124410629272461
            ],
            "translation" : [
                0.6077283620834351,
                -0.009613335132598877,
                0.3255799412727356
            ]
        },
        {
            "name" : "Empty",
            "translation" : [
                4.013426780700684,
                -0.042260389775037766,
                -0.06784584373235703
            ]
        },
        {
            "mesh" : 1,
            "name" : "Text",
            "scale" : [
                4.525455474853516,
                5.004147052764893,
                4.993954181671143
            ],
            "translation" : [
                -0.20201942324638367,
                -0.014354255050420761,
                -0.24463291466236115
            ]
        }
    ],
    "materials" : [
        {
            "doubleSided" : true,
            "name" : "Material",
            "pbrMetallicRoughness" : {
                "baseColorFactor" : [
                    0.8000000715255737,
                    0.22842848300933838,
                    0.0649145096540451,
                    1
                ],
                "metallicFactor" : 0,
                "roughnessFactor" : 0.5
            }
        },
        {
            "doubleSided" : true,
            "name" : "Material.003",
            "pbrMetallicRoughness" : {
                "metallicFactor" : 0,
                "roughnessFactor" : 0.5
            }
        }
    ],
    "meshes" : [
        {
            "name" : "Text.002",
            "primitives" : [
                {
                    "attributes" : {
                        "POSITION" : 0,
                        "NORMAL" : 1,
                        "TEXCOORD_0" : 2
                    },
                    "indices" : 3,
                    "material" : 0
                }
            ]
        },
        {
            "name" : "Text.003",
            "primitives" : [
                {
                    "attributes" : {
                        "POSITION" : 4,
                        "NORMAL" : 5,
                        "TEXCOORD_0" : 6
                    },
                    "indices" : 7,
                    "material" : 1
                }
            ]
        }
    ],
    "accessors" : [
        {
            "bufferView" : 0,
            "componentType" : 5126,
            "count" : 2956,
            "max" : [
                0.15759241580963135,
                0.06766657531261444,
                0.3078618347644806
            ],
            "min" : [
                -0.1585855484008789,
                -0.06528179347515106,
                -0.2924606502056122
            ],
            "type" : "VEC3"
        },
        {
            "bufferView" : 1,
            "componentType" : 5126,
            "count" : 2956,
            "type" : "VEC3"
        },
        {
            "bufferView" : 2,
            "componentType" : 5126,
            "count" : 2956,
            "type" : "VEC2"
        },
        {
            "bufferView" : 3,
            "componentType" : 5123,
            "count" : 3984,
            "type" : "SCALAR"
        },
        {
            "bufferView" : 4,
            "componentType" : 5126,
            "count" : 5529,
            "max" : [
                0.1677713245153427,
                0.06760106980800629,
                0.3007456064224243
            ],
            "min" : [
                -0.16594818234443665,
                -0.06325752288103104,
                -0.3007456064224243
            ],
            "type" : "VEC3"
        },
        {
            "bufferView" : 5,
            "componentType" : 5126,
            "count" : 5529,
            "type" : "VEC3"
        },
        {
            "bufferView" : 6,
            "componentType" : 5126,
            "count" : 5529,
            "type" : "VEC2"
        },
        {
            "bufferView" : 7,
            "componentType" : 5123,
            "count" : 7800,
            "type" : "SCALAR"
        }
    ],
    "bufferViews" : [
        {
            "buffer" : 0,
            "byteLength" : 35472,
            "byteOffset" : 0
        },
        {
            "buffer" : 0,
            "byteLength" : 35472,
            "byteOffset" : 35472
        },
        {
            "buffer" : 0,
            "byteLength" : 23648,
            "byteOffset" : 70944
        },
        {
            "buffer" : 0,
            "byteLength" : 7968,
            "byteOffset" : 94592
        },
        {
            "buffer" : 0,
            "byteLength" : 66348,
            "byteOffset" : 102560
        },
        {
            "buffer" : 0,
            "byteLength" : 66348,
            "byteOffset" : 168908
        },
        {
            "buffer" : 0,
            "byteLength" : 44232,
            "byteOffset" : 235256
        },
        {
            "buffer" : 0,
            "byteLength" : 15600,
            "byteOffset" : 279488
        }
    ],
    "buffers" : [
        {
            "byteLength" : 295088,
            "uri" : "data:application/octet-stream;base64,"
        }
    ]
}
